# Blender v2.74 (sub 0) OBJ File: 'basic_hex.blend'
# www.blender.org
mtllib basic_hex.mtl
o Circle
v -0.000000 -0.000000 1.000000
v 0.866025 -0.000000 0.500000
v 0.866025 0.000000 -0.500000
v -0.000000 0.000000 -1.000000
v -0.866025 0.000000 -0.500000
v -0.866025 -0.000000 0.500000
v -0.000000 0.305934 1.000000
v 0.866025 0.305935 0.500000
v 0.866025 0.305935 -0.500000
v -0.000000 0.305935 -1.000000
v -0.866025 0.305935 -0.500000
v -0.866025 0.305935 0.500000
vt 0.151500 0.925973
vt 0.020332 0.925973
vt 0.020332 0.723924
vt 0.151500 0.723924
vt 0.020332 0.319826
vt 0.151500 0.319826
vt 0.020332 0.117777
vt 0.151500 0.117777
vt 0.020168 0.117777
vt 0.151337 0.117777
vt 0.151337 0.319826
vt 0.020168 0.319826
vt 0.151337 0.723924
vt 0.020168 0.723924
vt 0.151337 0.925973
vt 0.020168 0.925973
vt 0.767865 0.845774
vt 0.345150 0.847436
vt 0.150607 0.493250
vt 0.996039 0.489925
vt 0.378780 0.137401
vt 0.801496 0.135738
vt 0.801568 0.135699
vt 0.996110 0.489886
vt 0.150678 0.493210
vt 0.378852 0.137361
vt 0.345221 0.847397
vt 0.767937 0.845735
vn -0.500000 0.000000 0.866000
vn -1.000000 -0.000000 0.000000
vn -0.500000 -0.000000 -0.866000
vn 0.500000 0.000000 -0.866000
vn 1.000000 -0.000000 0.000000
vn 0.500000 0.000000 0.866000
vn -0.000000 1.000000 0.000000
vn -0.000000 -1.000000 -0.000000
usemtl Material
s off
f 1/1/1 7/2/1 12/3/1 6/4/1
f 6/4/2 12/3/2 11/5/2 5/6/2
f 5/6/3 11/5/3 10/7/3 4/8/3
f 4/9/4 10/10/4 9/11/4 3/12/4
f 3/12/5 9/11/5 8/13/5 2/14/5
f 2/14/6 8/13/6 7/15/6 1/16/6
f 11/17/7 12/18/7 7/19/7 10/20/7
f 8/21/7 9/22/7 10/20/7 7/19/7
f 2/23/8 1/24/8 4/25/8 3/26/8
f 5/27/8 4/25/8 1/24/8 6/28/8
