# Blender v2.74 (sub 0) OBJ File: ''
# www.blender.org
mtllib plane.mtl
o Cube_Cube.003
v 1.000000 -1.000000 -1.000000
v 1.000000 1.000000 -1.000000
v 1.000000 -1.000000 1.000000
v 1.000000 1.000000 1.000000
v -1.000000 -1.000000 -1.000000
v -1.000000 1.000000 -1.000000
v -1.000000 -1.000000 1.000000
v -1.000000 1.000000 1.000000
v -4.850721 -0.533603 -1.000000
v -4.850721 0.264639 -1.000000
v -4.850721 -0.533603 1.000000
v -4.850721 0.264639 1.000000
v -3.186478 -1.000000 -1.000000
v -3.186478 -1.000000 1.000000
v -3.186478 1.000000 -1.000000
v -3.186478 1.000000 1.000000
v -2.709820 -1.000000 -1.000000
v -2.709820 1.000000 -1.000000
v -2.709820 1.000000 1.000000
v -2.709820 -1.000000 1.000000
v -2.799182 1.801090 -1.000000
v -2.799182 1.801090 1.000000
v -2.632649 1.801090 -1.000000
v -2.632649 1.801090 1.000000
v -0.317382 -0.597689 -4.881997
v -0.317382 -0.347265 -4.881997
v -0.317382 -0.597689 4.881997
v -0.317382 -0.347265 4.881997
v -2.317382 -0.597689 -4.881997
v -2.317382 -0.347265 -4.881997
v -2.317382 -0.597689 4.881997
v -2.317382 -0.347265 4.881997
v -1.253392 1.000000 -0.703604
v -1.253392 1.000000 0.703604
v -2.456429 1.000000 -0.703604
v -2.456429 1.000000 0.703604
v -1.253392 0.324079 -0.703604
v -1.253392 0.324079 0.703604
v -2.456429 0.324079 -0.703604
v -2.456429 0.324079 0.703604
v 2.107574 0.097480 -0.281718
v 2.107574 1.255100 -0.281718
v 2.107574 0.097480 0.281718
v 2.107574 1.255100 0.281718
v 0.949954 0.097480 -0.281718
v 0.949954 1.255100 -0.281718
v 0.949954 0.097480 0.281718
v 0.949954 1.255100 0.281718
v 2.107574 2.397046 -0.102613
v 2.107574 2.397046 0.102613
v 1.550749 2.397046 -0.102613
v 1.550749 2.397046 0.102613
v 2.107574 0.725542 -0.281718
v 2.107574 0.725542 0.281718
v 0.949954 0.725542 0.281718
v 0.949954 0.725542 -0.281718
v 2.107574 0.930686 -0.281718
v 2.107574 0.930686 0.281718
v 0.949954 0.930686 0.281718
v 0.949954 0.930686 -0.281718
v 2.205713 0.725542 2.281718
v 1.463437 0.725542 2.281718
v 2.205713 0.930686 2.281718
v 1.463437 0.930686 2.281718
v 2.205713 0.725542 -2.281718
v 1.463437 0.725542 -2.281718
v 2.205713 0.930686 -2.281718
v 1.463437 0.930686 -2.281718
v -0.738214 2.017582 -1.000000
v -0.738214 1.799552 -1.000000
v -0.738214 2.017582 1.000000
v -0.738214 1.799552 1.000000
v -2.738214 2.017582 -1.000000
v -2.827276 1.799552 -1.000000
v -2.738214 2.017582 1.000000
v -2.827276 1.799552 1.000000
v -1.966600 2.073106 1.000000
v -1.966600 2.208906 1.000000
v -1.966600 2.073106 -1.000000
v -1.966600 2.208906 -1.000000
v -1.775659 2.208906 1.000000
v -1.775659 2.073106 -1.000000
v -1.775659 2.073106 1.000000
v -1.775659 2.208906 -1.000000
v -0.382044 1.000000 0.847646
v -0.382044 -1.000000 1.000000
v -0.382044 1.000000 -0.847646
v -0.382044 -1.000000 -1.000000
v -0.035229 -1.000000 1.000000
v -0.035229 1.000000 -0.847646
v -0.035229 1.000000 0.847646
v -0.035229 -1.000000 -1.000000
v -4.808015 -0.081521 -0.113977
v -4.808015 0.081521 -0.113977
v -4.808015 -0.081521 0.113977
v -4.808015 0.081521 0.113977
v -5.701253 -0.081521 -0.113977
v -5.701253 0.081521 -0.113977
v -5.701253 -0.081521 0.113977
v -5.701253 0.081521 0.113977
v -5.163372 -0.969367 -1.128948
v -5.163372 -0.628136 -1.348941
v -5.163372 0.628136 1.348941
v -5.163372 0.969367 1.128948
v -5.275689 -0.969367 -1.128948
v -5.275689 -0.628136 -1.348941
v -5.275689 0.628136 1.348941
v -5.275689 0.969367 1.128948
v -5.362545 -1.134093 0.963343
v -5.362545 -1.352266 0.620946
v -5.362545 1.352266 -0.620946
v -5.362545 1.134093 -0.963343
v -5.491906 -1.134093 0.963343
v -5.491906 -1.352266 0.620946
v -5.491906 1.352266 -0.620946
v -5.491906 1.134093 -0.963343
v -0.124331 1.114818 -1.000000
v -0.343150 1.137264 -1.000000
v -0.124331 1.114818 1.000000
v -0.343150 1.137264 1.000000
v -3.121469 1.134466 -0.664294
v -3.121469 1.134466 0.664294
v -2.864191 1.666625 -0.664294
v -2.864191 1.666625 0.664294
v -2.697141 1.131620 -0.671398
v -2.697141 1.131620 0.671398
v -2.645329 1.669471 -0.671398
v -2.645329 1.669471 0.671398
vt 0.287380 0.895052
vt 0.287380 0.748661
vt 0.431070 0.748661
vt 0.431070 0.895052
vt 0.545209 0.327111
vt 0.545939 0.281841
vt 0.689324 0.281875
vt 0.689324 0.327106
vt 0.689324 0.306405
vt 0.832724 0.307047
vt 0.834278 0.429268
vt 0.690878 0.428626
vt 0.430599 0.352508
vt 0.431021 0.428244
vt 0.287419 0.428244
vt 0.287410 0.352470
vt 0.690365 0.101151
vt 0.833765 0.101793
vt 0.833535 0.147021
vt 0.690135 0.146379
vt 0.821914 0.505042
vt 0.700257 0.505141
vt 0.689324 0.429385
vt 0.832847 0.429268
vt 0.487847 0.748661
vt 0.487847 0.895052
vt 0.430982 0.121814
vt 0.287380 0.121814
vt 0.320852 0.000000
vt 0.378167 0.000000
vt 0.120407 0.713900
vt 0.120407 0.860107
vt 0.000000 0.862706
vt 0.000000 0.716498
vt 0.689324 0.121835
vt 0.545939 0.121802
vt 0.598659 0.000000
vt 0.655886 0.000013
vt 0.689324 0.156724
vt 0.545939 0.156691
vt 0.981405 0.500801
vt 0.923772 0.500801
vt 0.933241 0.476749
vt 0.971936 0.476749
vt 0.430987 0.156703
vt 0.287385 0.156703
vt 0.689501 0.271519
vt 0.832901 0.272161
vt 0.431003 0.281854
vt 0.287401 0.281854
vt 0.832847 0.700776
vt 0.689324 0.700893
vt 0.710594 0.682331
vt 0.811577 0.682248
vt 0.821072 0.999990
vt 0.821072 0.853783
vt 0.833036 0.853793
vt 0.833036 1.000000
vt 0.488507 0.162326
vt 0.488507 0.150137
vt 0.488505 0.150162
vt 0.488507 0.162352
vt 0.870082 0.558470
vt 0.931003 0.558470
vt 0.920777 0.583042
vt 0.880308 0.583042
vt 0.834278 0.714680
vt 0.834278 0.000000
vt 0.852270 0.000000
vt 0.852270 0.714680
vt 0.931003 0.704860
vt 0.948957 0.558474
vt 0.948957 0.704864
vt 0.870082 0.000000
vt 0.870082 0.714680
vt 0.120407 0.860290
vt 0.138388 0.713902
vt 0.138388 0.860292
vt 0.287380 0.000113
vt 0.287380 0.713288
vt 0.143686 0.713175
vt 0.143686 0.000000
vt 0.143686 0.000117
vt 0.143686 0.713900
vt 0.000000 0.713783
vt 0.000000 0.000000
vt 0.772510 0.956784
vt 0.772510 0.853783
vt 0.821072 0.956784
vt 0.689324 0.575757
vt 0.710594 0.594285
vt 0.832847 0.575641
vt 0.811577 0.594203
vt 0.143686 0.963205
vt 0.143686 0.860333
vt 0.230116 0.860403
vt 0.230116 0.963275
vt 0.083187 0.950762
vt 0.083187 0.862706
vt 0.131719 0.862712
vt 0.131719 0.950768
vt 0.834278 0.953204
vt 0.834278 0.865147
vt 0.882736 0.865159
vt 0.882736 0.953215
vt 0.230116 0.860333
vt 0.278193 0.860333
vt 0.278193 0.963334
vt 0.611347 0.607213
vt 0.599195 0.567874
vt 0.642237 0.554076
vt 0.654389 0.593415
vt 0.332407 0.895063
vt 0.332407 0.979795
vt 0.287380 0.979784
vt 0.401247 0.612116
vt 0.414526 0.573157
vt 0.456727 0.588084
vt 0.443448 0.627043
vt 0.882736 0.949879
vt 0.882736 0.865147
vt 0.927832 0.865153
vt 0.927832 0.949885
vt 0.372806 0.979779
vt 0.372806 0.895052
vt 0.083177 0.945738
vt 0.000000 0.945784
vt 0.043178 0.862728
vt 0.571570 0.901893
vt 0.586297 0.901881
vt 0.586298 0.942633
vt 0.571570 0.942645
vt 0.378944 0.560571
vt 0.365665 0.599530
vt 0.287380 0.557962
vt 0.292217 0.543771
vt 0.689324 0.877476
vt 0.772501 0.877492
vt 0.772510 0.961765
vt 0.732501 0.961757
vt 0.562903 0.579508
vt 0.575056 0.618847
vt 0.492933 0.631430
vt 0.488507 0.617101
vt 0.488507 0.751390
vt 0.571570 0.755615
vt 0.571570 0.902004
vt 0.518309 0.899295
vt 0.387463 0.607240
vt 0.400742 0.568281
vt 0.917348 0.861058
vt 0.864083 0.717302
vt 0.917348 0.714680
vt 0.597288 0.611720
vt 0.585136 0.572381
vt 0.689333 0.853783
vt 0.083187 0.969466
vt 0.000010 0.969513
vt 0.450605 0.949383
vt 0.450605 0.895052
vt 0.465312 0.895056
vt 0.465312 0.949387
vt 0.571570 0.751390
vt 0.654638 0.755617
vt 0.654638 0.901881
vt 0.601374 0.899171
vt 0.349173 0.748661
vt 0.335389 0.743786
vt 0.541905 0.432772
vt 0.555964 0.428265
vt 0.435875 0.949383
vt 0.435875 0.895052
vt 0.654389 0.746884
vt 0.640330 0.751390
vt 0.953156 0.146253
vt 0.870082 0.150349
vt 0.899888 0.002626
vt 0.953156 0.000000
vt 0.442943 0.428244
vt 0.456727 0.433119
vt 0.975312 0.861071
vt 0.975312 0.714680
vt 0.888952 0.298685
vt 0.879530 0.301241
vt 0.907078 0.352215
vt 0.923853 0.354410
vt 0.964711 0.558470
vt 0.964711 0.704861
vt 0.885397 0.423657
vt 0.875989 0.421105
vt 0.870082 0.498084
vt 0.885187 0.502181
vt 0.198961 0.714239
vt 0.143686 0.713288
vt 0.143686 0.859370
vt 0.198961 0.860322
vt 0.690368 0.778176
vt 0.832847 0.853783
vt 0.833892 0.778176
vt 0.689444 0.700893
vt 0.690379 0.764202
vt 0.833902 0.764202
vt 0.832967 0.700893
vt 0.212679 0.714250
vt 0.212679 0.860333
vt 0.923772 0.354410
vt 0.907023 0.356613
vt 0.879516 0.407599
vt 0.888924 0.410150
vt 0.885420 0.285180
vt 0.875998 0.287736
vt 0.885210 0.206656
vt 0.870082 0.210759
vt 0.287380 0.713401
vt 0.287380 0.859483
vt 0.700257 0.530523
vt 0.821914 0.530424
vt 0.690493 0.075768
vt 0.833894 0.076410
vt 0.430596 0.327123
vt 0.287406 0.327085
vt 0.545209 0.352496
vt 0.689324 0.352491
vt 0.545939 0.428231
vt 0.689324 0.428265
vt 0.690878 0.000000
vt 0.834278 0.000642
vt 0.595591 0.918566
vt 0.595591 0.901881
vt 0.607304 0.901881
vt 0.607304 0.918566
vt 0.465312 0.960433
vt 0.477001 0.895055
vt 0.477001 0.960436
vt 0.618901 0.901881
vt 0.618901 0.918566
vt 0.131979 0.925713
vt 0.131979 0.860333
vt 0.143686 0.925715
vt 0.435875 0.960429
vt 0.419531 0.960441
vt 0.419531 0.895065
vt 0.403173 0.960438
vt 0.403173 0.895066
vt 0.683559 0.428265
vt 0.683559 0.644054
vt 0.654389 0.644057
vt 0.654389 0.428267
vt 0.286263 0.886342
vt 0.278193 0.886327
vt 0.286263 0.860348
vt 1.000000 0.081581
vt 1.000000 0.296740
vt 0.971037 0.296468
vt 0.971037 0.081309
vt 0.286263 0.911925
vt 0.278193 0.911908
vt 0.286263 0.886359
vt 0.983382 0.714680
vt 0.983382 0.903258
vt 0.975312 0.903312
vt 0.981405 0.313792
vt 0.989474 0.313717
vt 0.989474 0.500726
vt 0.485899 0.428246
vt 0.485898 0.644027
vt 0.456727 0.644024
vt 0.456728 0.428244
vt 0.595591 0.927713
vt 0.586297 0.927799
vt 0.586297 0.901967
vt 0.660238 0.915416
vt 0.660238 0.701165
vt 0.689324 0.915143
vt 0.486295 0.895052
vt 0.486295 0.921098
vt 0.477001 0.921160
vt 0.964711 0.704843
vt 0.964711 0.515530
vt 0.974006 0.515548
vt 0.974006 0.704861
vt 0.983300 0.515549
vt 0.983300 0.701781
vt 0.974006 0.701762
vt 0.968851 0.000095
vt 0.953156 0.146207
vt 0.968851 0.146302
vt 0.923853 0.166248
vt 0.921363 0.150349
vt 0.923853 0.296740
vt 0.971037 0.296740
vt 0.971037 0.150349
vt 0.923853 0.150349
vt 0.921286 0.558470
vt 0.923772 0.542570
vt 0.387540 0.935543
vt 0.403173 0.897858
vt 0.403173 0.937320
vt 0.870082 0.704861
vt 0.880308 0.680289
vt 0.920777 0.680289
vt 0.981405 0.354410
vt 0.971936 0.378462
vt 0.933241 0.378462
vt 0.943554 0.865692
vt 0.943554 0.962734
vt 0.927832 0.963227
vt 0.927832 0.865147
vt 0.654389 0.686338
vt 0.669123 0.645784
vt 0.684760 0.644057
vt 0.684760 0.683580
vt 0.487209 0.741706
vt 0.456727 0.742190
vt 0.487209 0.644581
vn 1.000000 0.000000 0.000000
vn 0.122300 0.037800 0.991800
vn -0.269800 -0.962900 0.000000
vn -0.073300 0.038000 -0.996600
vn 0.000000 -1.000000 0.000000
vn 0.000000 1.000000 0.000000
vn -1.000000 0.000000 0.000000
vn 0.000000 0.000000 -1.000000
vn -0.404200 0.914700 0.000000
vn 0.000000 0.000000 1.000000
vn 0.995400 -0.095900 0.000000
vn -0.900300 0.435300 -0.000000
vn 0.000000 0.154900 -0.987900
vn -0.885000 0.465600 0.000000
vn 0.000000 0.154900 0.987900
vn -0.968600 0.000000 0.248700
vn 0.998800 0.000000 -0.049000
vn 0.998800 0.000000 0.049000
vn -0.968600 0.000000 -0.248700
vn 0.826900 0.562300 0.000000
vn -0.925700 0.378200 0.000000
vn -0.240700 0.970600 0.000000
vn -0.255000 -0.967000 0.000000
vn 0.302900 -0.953000 0.000000
vn 0.181400 0.983400 0.000000
vn 0.122300 0.037800 -0.991800
vn 0.000000 0.076000 0.997100
vn -0.073300 0.038000 0.996600
vn 0.000000 0.076000 -0.997100
vn 0.000000 0.541900 0.840500
vn 0.000000 -0.541900 -0.840500
vn 0.000000 -0.840500 0.541900
vn 0.000000 0.840500 -0.541900
vn 0.000000 0.843300 -0.537400
vn 0.000000 -0.843300 0.537400
vn 0.000000 0.537400 0.843300
vn 0.000000 -0.537400 -0.843300
vn -0.102000 -0.994800 0.000000
vn -0.858800 -0.512300 0.000000
vn 0.022100 -0.006400 0.999700
vn 0.013000 -0.999900 0.000000
vn 0.022100 -0.006400 -0.999700
vn 0.006700 1.000000 0.000000
usemtl None
s off
f 2/1/1 4/2/1 3/3/1 1/4/1
f 85/5/2 8/6/2 7/7/2 86/8/2
f 13/9/3 14/10/3 11/11/3 9/12/3
f 90/13/4 2/14/4 1/15/4 92/16/4
f 88/17/5 86/18/5 7/19/5 5/20/5
f 90/21/6 91/22/6 4/23/6 2/24/6
f 12/25/7 10/26/7 9/4/7 11/3/7
f 15/27/8 13/28/8 9/29/8 10/30/8
f 16/31/9 15/32/9 10/33/9 12/34/9
f 14/35/10 16/36/10 12/37/10 11/38/10
f 20/39/10 19/40/10 16/36/10 14/35/10
f 18/41/11 23/42/11 127/43/11 125/44/11
f 18/45/8 17/46/8 13/28/8 15/27/8
f 17/47/5 20/48/5 14/10/5 13/9/5
f 5/20/5 7/19/5 20/48/5 17/47/5
f 6/49/8 5/50/8 17/46/8 18/45/8
f 18/51/6 19/52/6 36/53/6 35/54/6
f 7/7/10 8/6/10 19/40/10 20/39/10
f 24/55/6 23/56/6 21/57/6 22/58/6
f 16/36/10 19/40/10 24/59/10 22/60/10
f 18/45/8 15/27/8 21/61/8 23/62/8
f 21/63/12 15/64/12 121/65/12 123/66/12
f 26/67/1 28/68/1 27/69/1 25/70/1
f 28/71/10 32/64/10 31/72/10 27/73/10
f 32/74/7 30/75/7 29/70/7 31/69/7
f 30/76/8 26/31/8 25/77/8 29/78/8
f 25/79/5 27/80/5 31/81/5 29/82/5
f 30/83/6 32/84/6 28/85/6 26/86/6
f 35/87/1 36/88/1 40/56/1 39/89/1
f 19/52/6 8/90/6 34/91/6 36/53/6
f 6/92/6 18/51/6 35/54/6 33/93/6
f 8/90/6 6/92/6 33/93/6 34/91/6
f 38/94/6 37/95/6 39/96/6 40/97/6
f 36/98/8 34/99/8 38/100/8 40/101/8
f 33/102/10 35/103/10 39/104/10 37/105/10
f 34/97/7 33/106/7 37/107/7 38/108/7
f 53/109/1 54/110/1 43/111/1 41/112/1
f 54/113/10 55/114/10 47/115/10 43/1/10
f 55/116/7 56/117/7 45/118/7 47/119/7
f 56/120/8 53/121/8 41/122/8 45/123/8
f 41/124/5 43/114/5 47/113/5 45/125/5
f 42/126/13 46/127/13 51/128/13 49/99/13
f 51/129/6 52/130/6 50/131/6 49/132/6
f 46/133/14 48/134/14 52/135/14 51/136/14
f 48/137/15 44/138/15 50/139/15 52/140/15
f 44/141/1 42/142/1 49/143/1 50/144/1
f 60/145/6 57/146/6 67/147/6 68/148/6
f 59/149/7 60/150/7 56/117/7 55/116/7
f 58/151/6 59/103/6 64/152/6 63/153/6
f 57/154/1 58/155/1 54/110/1 53/109/1
f 42/142/1 44/141/1 58/155/1 57/154/1
f 44/138/10 48/137/10 59/156/10 58/88/10
f 48/134/7 46/133/7 60/150/7 59/149/7
f 46/127/8 42/126/8 57/157/8 60/158/8
f 63/159/10 64/160/10 62/161/10 61/162/10
f 55/163/5 54/164/5 61/165/5 62/166/5
f 59/149/16 55/116/16 62/167/16 64/168/16
f 54/110/17 58/155/17 63/169/17 61/170/17
f 68/171/8 67/172/8 65/160/8 66/159/8
f 57/154/18 53/109/18 65/173/18 67/174/18
f 53/175/5 56/176/5 66/177/5 65/178/5
f 56/117/19 60/150/19 68/179/19 66/180/19
f 71/151/20 119/181/20 117/182/20 69/153/20
f 77/183/10 78/184/10 75/185/10 76/186/10
f 76/187/21 75/72/21 73/73/21 74/188/21
f 82/189/8 84/190/8 69/191/8 70/192/8
f 80/193/22 73/194/22 75/195/22 78/196/22
f 82/197/23 70/156/23 72/198/23 83/199/23
f 74/200/24 79/201/24 77/202/24 76/203/24
f 84/204/6 80/193/6 78/196/6 81/205/6
f 74/206/8 73/207/8 80/208/8 79/209/8
f 83/210/10 81/211/10 78/184/10 77/183/10
f 72/212/10 71/213/10 81/211/10 83/210/10
f 69/214/25 84/204/25 81/205/25 71/215/25
f 79/201/5 82/197/5 83/199/5 77/202/5
f 79/209/8 80/208/8 84/190/8 82/189/8
f 6/92/6 8/90/6 85/216/6 87/217/6
f 92/218/5 89/219/5 86/18/5 88/17/5
f 6/49/26 87/220/26 88/221/26 5/50/26
f 91/222/27 85/5/27 86/8/27 89/223/27
f 4/224/28 91/222/28 89/223/28 3/225/28
f 1/226/5 3/227/5 89/219/5 92/218/5
f 87/217/6 85/216/6 91/22/6 90/21/6
f 87/220/29 90/13/29 92/16/29 88/221/29
f 94/228/1 96/229/1 95/230/1 93/231/1
f 96/232/10 100/161/10 99/233/10 95/234/10
f 100/231/7 98/230/7 97/235/7 99/236/7
f 98/237/8 94/238/8 93/95/8 97/239/8
f 93/240/5 95/241/5 99/242/5 97/172/5
f 98/241/6 100/243/6 96/244/6 94/242/6
f 102/245/1 104/246/1 103/247/1 101/248/1
f 104/249/30 108/250/30 107/107/30 103/251/30
f 108/252/7 106/253/7 105/254/7 107/255/7
f 106/256/31 102/257/31 101/250/31 105/258/31
f 101/259/32 103/260/32 107/261/32 105/182/32
f 106/41/33 108/262/33 104/263/33 102/264/33
f 110/265/1 112/266/1 111/267/1 109/268/1
f 112/269/34 116/270/34 115/271/34 111/229/34
f 116/272/7 114/273/7 113/52/7 115/274/7
f 114/233/35 110/275/35 109/276/35 113/277/35
f 109/278/36 111/279/36 115/280/36 113/281/36
f 114/282/37 116/283/37 112/284/37 110/280/37
f 118/285/38 117/178/38 119/286/38 120/287/38
f 72/212/10 120/288/10 119/289/10 71/213/10
f 70/290/39 118/291/39 120/292/39 72/293/39
f 69/191/8 117/294/8 118/295/8 70/192/8
f 123/296/40 121/125/40 125/297/40 127/298/40
f 16/71/12 22/299/12 124/300/12 122/301/12
f 22/299/12 21/63/12 123/66/12 124/300/12
f 15/64/12 16/71/12 122/301/12 121/65/12
f 24/206/11 19/302/11 126/303/11 128/304/11
f 23/42/11 24/206/11 128/304/11 127/43/11
f 19/302/11 18/41/11 125/44/11 126/303/11
f 124/305/41 123/306/41 127/307/41 128/308/41
f 122/309/42 124/310/42 128/311/42 126/312/42
f 122/313/43 126/314/43 125/267/43 121/315/43
