# Blender v2.74 (sub 0) OBJ File: ''
# www.blender.org
mtllib play_table.mtl
o Cube
v -3.800091 -1.000000 1.000000
v -3.800091 -1.000000 -1.000000
v 3.800092 -1.000000 -1.000000
v 3.800090 -1.000000 1.000000
v -2.351133 1.000000 0.999999
v -2.351130 1.000000 -1.000001
v 2.351132 1.000000 -1.000000
v 2.351131 1.000000 1.000000
v -0.448118 -0.448118 -1.842938
v 0.448119 -0.448118 -1.842938
v -0.448118 1.048682 -1.842938
v 0.448119 1.048682 -1.842938
v -1.855963 1.000000 0.789391
v -1.855961 1.000000 -0.789392
v 1.855963 1.000000 -0.789391
v 1.855962 1.000000 0.789391
v -1.855963 0.399723 0.789391
v -1.855961 0.399723 -0.789392
v 1.855963 0.399723 -0.789391
v 1.855962 0.399723 0.789391
v -1.447499 -0.380911 2.345706
v 1.447498 -0.380911 2.345706
v -0.895574 0.963810 2.076075
v 0.895573 0.963810 2.076075
vt 0.120467 0.000000
vt 0.283119 0.000000
vt 0.283119 0.671863
vt 0.120467 0.671862
vt 0.431462 0.000000
vt 0.597955 0.000000
vt 0.580423 0.043773
vt 0.448995 0.043773
vt 0.473271 0.592486
vt 0.639778 0.592486
vt 0.639778 0.769288
vt 0.473271 0.769288
vt 0.597955 0.415684
vt 0.668179 0.168228
vt 0.668179 0.247456
vt 0.473272 0.415684
vt 0.639778 0.415684
vt 0.431462 0.415684
vt 0.341843 0.287011
vt 0.341844 0.128673
vt 0.793199 0.375545
vt 0.668869 0.375545
vt 0.668869 0.296317
vt 0.793199 0.296317
vt 0.668179 0.128089
vt 0.834307 0.000000
vt 0.834307 0.671863
vt 0.668180 0.543773
vt 0.341843 0.296317
vt 0.341843 0.375545
vt 0.099592 0.811428
vt 0.099592 0.671863
vt 0.149567 0.671863
vt 0.149567 0.811428
vt 0.580423 0.371911
vt 0.448995 0.371911
vt 0.473271 0.743822
vt 0.341844 0.743822
vt 0.341843 0.415684
vt 0.049861 1.000000
vt 0.049861 0.671863
vt 0.099592 1.000000
vt 0.000000 1.000000
vt 0.000000 0.671863
vt 0.199543 0.671863
vt 0.199543 0.811428
vt 0.846155 0.256762
vt 0.959778 0.207971
vt 0.959778 0.463891
vt 0.846155 0.415101
vt 1.000000 0.671862
vt 0.834307 0.543773
vt 0.834307 0.128089
vt 1.000000 0.000000
vt 0.000000 0.463891
vt 0.000000 0.207971
vn 0.000000 -1.000000 0.000000
vn 0.000000 1.000000 0.000000
vn -0.809800 0.586700 -0.000000
vn -0.000000 0.998300 0.057700
vn 0.809800 0.586700 0.000000
vn -0.000000 0.999400 0.033600
vn 0.000000 -0.000000 -1.000000
vn 0.316400 0.131100 -0.939500
vn -0.316400 0.131100 -0.939500
vn 0.000000 -0.836600 -0.547800
vn -1.000000 0.000000 -0.000000
vn -0.000000 0.000000 1.000000
vn 1.000000 0.000000 0.000000
vn -0.000000 0.196600 0.980500
vn 0.536900 0.381800 0.752300
vn -0.536900 0.381800 0.752300
vn -0.000000 -0.908500 0.417900
usemtl Material
s off
f 1/1/1 2/2/1 3/3/1 4/4/1
f 8/5/2 7/6/2 15/7/2 16/8/2
f 1/9/3 5/10/3 6/11/3 2/12/3
f 6/13/4 7/6/4 12/14/4 11/15/4
f 3/9/5 7/16/5 8/17/5 4/10/5
f 8/5/6 5/18/6 23/19/6 24/20/6
f 9/21/7 11/22/7 12/23/7 10/24/7
f 7/25/8 3/26/8 10/24/8 12/23/8
f 2/27/9 6/28/9 11/22/9 9/21/9
f 3/3/10 2/2/10 9/29/10 10/30/10
f 16/31/11 15/32/11 19/33/11 20/34/11
f 7/6/2 6/13/2 14/35/2 15/7/2
f 5/18/2 8/5/2 16/8/2 13/36/2
f 6/13/2 5/18/2 13/36/2 14/35/2
f 17/16/2 20/37/2 19/38/2 18/39/2
f 15/40/12 14/41/12 18/32/12 19/42/12
f 13/43/7 16/44/7 20/41/7 17/40/7
f 14/34/13 13/33/13 17/45/13 18/46/13
f 23/47/14 21/48/14 22/49/14 24/50/14
f 4/51/15 8/52/15 24/50/15 22/49/15
f 5/53/16 1/54/16 21/48/16 23/47/16
f 1/1/17 4/4/17 22/55/17 21/56/17
