# Blender v2.74 (sub 0) OBJ File: 'tcg_card.blend'
# www.blender.org
mtllib card.mtl
o Cube_Cube.001
v -1.000000 -2.000000 -0.039649
v -1.000000 2.000000 -0.039649
v 1.000000 -2.000000 -0.039649
v 1.000000 2.000000 -0.039649
v -1.000000 -2.000000 0.039649
v -1.000000 2.000000 0.039649
v 1.000000 -2.000000 0.039649
v 1.000000 2.000000 0.039649
vt 0.400029 0.008018
vt 0.599971 0.008018
vt 0.599971 0.407901
vt 0.400029 0.407901
vt 0.999910 0.407901
vt 0.999910 0.415829
vt 0.599971 0.415829
vt 0.599971 0.815713
vt 0.400029 0.815713
vt 0.400029 0.415829
vt 0.000090 0.415830
vt 0.000090 0.407901
vt 0.400029 0.000090
vt 0.599971 0.000090
vn 0.000000 0.000000 -1.000000
vn 1.000000 0.000000 0.000000
vn -0.000000 0.000000 1.000000
vn -1.000000 0.000000 0.000000
vn 0.000000 -1.000000 0.000000
vn 0.000000 1.000000 0.000000
usemtl Material
s off
f 2/1/1 4/2/1 3/3/1 1/4/1
f 4/5/2 8/6/2 7/7/2 3/3/2
f 8/8/3 6/9/3 5/10/3 7/7/3
f 6/11/4 2/12/4 1/4/4 5/10/4
f 1/4/5 3/3/5 7/7/5 5/10/5
f 6/13/6 8/14/6 4/2/6 2/1/6
