# Blender v2.74 (sub 0) OBJ File: ''
# www.blender.org
mtllib simple_ship1.mtl
o Cube
v 1.000000 -1.000000 -1.000000
v 1.000000 -1.000000 1.000000
v -1.000000 -0.723227 0.723227
v -1.000000 -0.723227 -0.723228
v 1.000000 1.000000 -0.999999
v 0.999999 1.000000 1.000001
v -1.000000 0.723227 0.723227
v -1.000000 0.723227 -0.723227
v 2.304098 -0.403309 -0.403308
v 2.304098 -0.403309 0.403309
v 2.304098 0.403309 -0.403308
v 2.304098 0.403309 0.403310
v -0.400000 -1.000000 -1.000000
v -0.400000 -1.000000 1.000000
v -0.400000 1.000000 -1.000000
v -0.400000 1.000000 1.000000
v -0.172061 -1.000000 -1.000000
v -0.172062 -1.000000 1.000000
v -0.172061 1.000000 -1.000000
v -0.172062 1.000000 1.000000
v -1.018890 -0.432880 -3.674695
v -1.018890 0.432881 -3.674695
v -0.920220 -0.432880 -3.674695
v -0.920220 0.432881 -3.674695
v -1.020777 -0.449426 3.108128
v -1.020777 0.449425 3.108128
v -0.918335 -0.449426 3.108128
v -0.918336 0.449425 3.108128
v 1.088826 -1.135903 -0.378634
v 1.088826 -1.135903 0.378635
v -1.182981 -0.876769 0.292256
v -1.182981 -0.876769 -0.292257
v 1.012147 1.303336 -0.335019
v 1.012147 1.303336 0.335020
v -1.182982 0.876769 -0.292256
v -1.182982 0.876769 0.292256
v 2.570155 -0.458120 -0.152706
v 2.570155 -0.458120 0.152707
v 2.570155 0.458120 -0.152706
v 2.570155 0.458120 0.152708
v -0.501440 1.135903 0.378634
v -0.501439 1.135903 -0.378634
v -0.501439 -1.135903 0.378634
v -0.501439 -1.135903 -0.378635
v -0.242523 -1.135903 0.378634
v -0.242523 -1.135903 -0.378635
v -0.165845 1.303336 0.335020
v -0.165845 1.303336 -0.335020
vt 0.229793 0.320108
vt 0.193139 0.370905
vt 0.169950 0.309926
vt 0.187336 0.266811
vt 0.907582 0.173366
vt 0.907582 0.371098
vt 0.857997 0.343735
vt 0.857997 0.200729
vt 0.752553 0.396041
vt 0.755836 0.461929
vt 0.638643 0.461978
vt 0.634767 0.396090
vt 0.887890 0.789785
vt 0.687145 0.789785
vt 0.747036 0.670581
vt 0.827999 0.670581
vt 0.887890 0.904479
vt 0.687145 0.904479
vt 0.896483 0.000000
vt 0.896483 0.173366
vt 0.857997 0.158186
vt 0.857997 0.015180
vt 0.430180 0.716245
vt 0.463131 0.721664
vt 0.463131 0.801411
vt 0.430180 0.806830
vt 0.513482 0.403326
vt 0.486399 0.378535
vt 0.200746 0.691366
vt 0.000000 0.691366
vt 0.059892 0.550869
vt 0.140854 0.550869
vt 0.396672 0.377597
vt 0.434257 0.327886
vt 0.485143 0.460994
vt 0.486399 0.497065
vt 0.401491 0.688881
vt 0.401491 0.545876
vt 0.465061 0.518512
vt 0.465061 0.716245
vt 0.857997 0.391974
vt 0.841048 0.434663
vt 0.778627 0.461919
vt 0.787577 0.400419
vt 0.171631 0.802267
vt 0.171631 1.000000
vt 0.000000 0.945567
vt 0.000000 0.856701
vt 0.248252 0.338126
vt 0.209390 0.386767
vt 0.343169 0.430775
vt 0.292951 0.468331
vt 0.200746 0.802267
vt 0.000000 0.802267
vt 0.401491 0.792052
vt 0.200746 0.792052
vt 0.257669 0.518512
vt 0.344568 0.518512
vt 0.484704 0.518512
vt 0.484704 0.604107
vt 0.474901 0.604107
vt 0.474901 0.518512
vt 0.687145 0.941963
vt 0.486399 0.941963
vt 0.543322 0.670581
vt 0.630221 0.670581
vt 0.778627 0.264189
vt 0.755836 0.264199
vt 0.835618 0.000004
vt 0.845484 0.000000
vt 0.350696 0.246322
vt 0.334446 0.230460
vt 0.479364 0.000000
vt 0.486399 0.006866
vt 0.474901 0.607378
vt 0.465061 0.607378
vt 0.394733 0.792052
vt 0.394733 0.989785
vt 0.200746 0.935352
vt 0.200746 0.846486
vt 0.845528 0.670577
vt 0.835285 0.670581
vt 0.007303 0.483291
vt 0.000000 0.476162
vt 0.787577 0.325551
vt 0.752553 0.329797
vt 0.301755 0.284949
vt 0.283296 0.266931
vt 0.841048 0.291659
vt 0.857997 0.334186
vt 0.464820 0.518512
vt 0.428153 0.517637
vt 0.638643 0.264248
vt 0.634767 0.329847
vt 0.486399 0.348340
vt 0.513482 0.323579
vt 0.054390 0.518512
vt 0.146356 0.518512
vt 0.401491 0.716245
vt 0.401491 0.806830
vt 1.000000 0.015180
vt 1.000000 0.158186
vt 0.953866 0.173366
vt 0.953866 0.000000
vt 0.228634 0.225765
vt 0.272147 0.208352
vn -0.443800 -0.826100 0.347200
vn -0.418900 -0.000000 0.908000
vn -0.000000 0.909800 0.415000
vn 0.416100 0.000000 -0.909300
vn 0.000000 0.000000 -1.000000
vn -0.920500 -0.000000 -0.390800
vn 0.685600 -0.000000 -0.727900
vn 0.496600 0.746500 0.442900
vn 0.416100 -0.000000 0.909300
vn 0.474500 -0.799600 -0.368000
vn -0.418900 0.000000 -0.908000
vn -0.443800 0.826100 0.347200
vn 0.942700 0.000000 0.333700
vn 0.000000 -0.976900 0.213700
vn -0.000000 -0.000000 1.000000
vn 0.963000 0.000000 -0.269400
vn -0.245400 0.911700 0.329500
vn -0.974300 -0.000000 0.225400
vn 0.000000 0.978300 -0.207400
vn 0.000000 -0.978300 -0.207400
vn -0.959300 -0.000000 -0.282500
vn 0.000000 0.967500 0.252700
vn 0.000000 -0.967500 0.252700
vn -0.245400 0.911700 -0.329500
vn -0.446400 0.894800 -0.000000
vn 0.000000 -0.976900 -0.213700
vn 0.000000 -1.000000 0.000000
vn -0.443800 0.826100 -0.347200
vn -0.355400 0.934700 -0.000000
vn 0.474500 -0.799600 0.368000
vn 0.416100 -0.909300 0.000000
vn 0.496600 0.746500 -0.442900
vn 0.476800 0.879000 0.000000
vn 0.685600 0.000000 0.727900
vn 1.000000 -0.000000 0.000000
vn -0.920500 -0.000000 0.390800
vn -1.000000 -0.000000 -0.000000
vn 0.000000 0.909800 -0.415000
vn 0.000000 1.000000 0.000000
vn -0.443800 -0.826100 -0.347200
vn -0.355400 -0.934700 -0.000000
usemtl Material
s off
f 43/1/1 14/2/1 3/3/1 31/4/1
f 14/5/2 16/6/2 7/7/2 3/8/2
f 47/9/3 20/10/3 6/11/3 34/12/3
f 1/13/4 5/14/4 11/15/4 9/16/4
f 17/17/5 19/18/5 5/14/5 1/13/5
f 32/19/6 35/20/6 8/21/6 4/22/6
f 37/23/7 9/24/7 11/25/7 39/26/7
f 34/12/8 6/11/8 12/27/8 40/28/8
f 6/29/9 2/30/9 10/31/9 12/32/9
f 29/33/10 1/34/10 9/35/10 37/36/10
f 4/37/11 8/38/11 15/39/11 13/40/11
f 36/41/12 7/42/12 16/43/12 41/44/12
f 18/45/13 20/46/13 28/47/13 27/48/13
f 45/49/14 18/50/14 14/2/14 43/1/14
f 30/51/14 2/52/14 18/50/14 45/49/14
f 2/30/15 6/29/15 20/53/15 18/54/15
f 19/55/16 17/56/16 23/57/16 24/58/16
f 41/44/17 16/43/17 20/10/17 47/9/17
f 21/59/5 22/60/5 24/61/5 23/62/5
f 13/63/18 15/64/18 22/65/18 21/66/18
f 15/67/19 19/68/19 24/69/19 22/70/19
f 17/71/20 13/72/20 21/73/20 23/74/20
f 27/62/15 28/75/15 26/76/15 25/39/15
f 16/77/21 14/78/21 25/79/21 26/80/21
f 20/10/22 16/43/22 26/81/22 28/82/22
f 14/2/23 18/50/23 27/83/23 25/84/23
f 15/67/24 42/85/24 48/86/24 19/68/24
f 42/85/25 41/44/25 47/9/25 48/86/25
f 1/34/26 29/33/26 46/87/26 17/71/26
f 29/33/27 30/51/27 45/49/27 46/87/27
f 17/71/26 46/87/26 44/88/26 13/72/26
f 46/87/27 45/49/27 43/1/27 44/88/27
f 8/89/28 35/90/28 42/85/28 15/67/28
f 35/90/29 36/41/29 41/44/29 42/85/29
f 2/52/30 30/51/30 38/91/30 10/92/30
f 30/51/31 29/33/31 37/36/31 38/91/31
f 5/93/32 33/94/32 39/95/32 11/96/32
f 33/94/33 34/12/33 40/28/33 39/95/33
f 10/31/34 38/97/34 40/98/34 12/32/34
f 38/99/35 37/23/35 39/26/35 40/100/35
f 3/101/36 7/102/36 36/103/36 31/104/36
f 31/104/37 36/103/37 35/20/37 32/19/37
f 19/68/38 48/86/38 33/94/38 5/93/38
f 48/86/39 47/9/39 34/12/39 33/94/39
f 13/72/40 44/88/40 32/105/40 4/106/40
f 44/88/41 43/1/41 31/4/41 32/105/41
